<mxfile host="app.diagrams.net" agent="Mozilla/5.0 (Macintosh; Intel Mac OS X 10_15_7) AppleWebKit/605.1.15 (KHTML, like Gecko) Version/16.6 Safari/605.1.15" version="28.1.1">
  <diagram name="Page-1" id="iaHCY7rtMS4odmwodk8k">
    <mxGraphModel dx="896" dy="627" grid="1" gridSize="10" guides="1" tooltips="1" connect="1" arrows="1" fold="1" page="1" pageScale="1" pageWidth="850" pageHeight="1100" math="0" shadow="0">
      <root>
        <mxCell id="0" />
        <mxCell id="1" parent="0" />
        <mxCell id="hf4iLy-SJ0E2gR6EHuz_-3" value="Flujo de Recepción de Datos" style="swimlane;whiteSpace=wrap;html=1;fillColor=#dae8fc;strokeColor=#6c8ebf;" vertex="1" parent="1">
          <mxGeometry x="20" y="40" width="500" height="390" as="geometry" />
        </mxCell>
        <mxCell id="hf4iLy-SJ0E2gR6EHuz_-21" value="" style="edgeStyle=orthogonalEdgeStyle;rounded=0;orthogonalLoop=1;jettySize=auto;html=1;" edge="1" parent="hf4iLy-SJ0E2gR6EHuz_-3" target="hf4iLy-SJ0E2gR6EHuz_-19">
          <mxGeometry relative="1" as="geometry">
            <mxPoint x="60" y="180" as="sourcePoint" />
            <Array as="points">
              <mxPoint x="60" y="130" />
              <mxPoint x="60" y="130" />
            </Array>
          </mxGeometry>
        </mxCell>
        <mxCell id="hf4iLy-SJ0E2gR6EHuz_-11" value="Importar Set Datos" style="text;html=1;align=center;verticalAlign=middle;resizable=0;points=[];autosize=1;strokeColor=none;fillColor=none;" vertex="1" parent="hf4iLy-SJ0E2gR6EHuz_-3">
          <mxGeometry y="350" width="120" height="30" as="geometry" />
        </mxCell>
        <mxCell id="hf4iLy-SJ0E2gR6EHuz_-14" value="" style="html=1;verticalLabelPosition=bottom;align=center;labelBackgroundColor=#ffffff;verticalAlign=top;strokeWidth=2;strokeColor=#0080F0;shadow=0;dashed=0;shape=mxgraph.ios7.icons.data;" vertex="1" parent="hf4iLy-SJ0E2gR6EHuz_-3">
          <mxGeometry x="205" y="60" width="40" height="50" as="geometry" />
        </mxCell>
        <mxCell id="hf4iLy-SJ0E2gR6EHuz_-17" value="Colleción de Respaldo Datos Recibidos - Mongo" style="text;html=1;align=center;verticalAlign=middle;resizable=0;points=[];autosize=1;strokeColor=none;fillColor=none;" vertex="1" parent="hf4iLy-SJ0E2gR6EHuz_-3">
          <mxGeometry x="85" y="30" width="280" height="30" as="geometry" />
        </mxCell>
        <mxCell id="hf4iLy-SJ0E2gR6EHuz_-18" style="edgeStyle=orthogonalEdgeStyle;rounded=0;orthogonalLoop=1;jettySize=auto;html=1;entryX=0.025;entryY=0.48;entryDx=0;entryDy=0;entryPerimeter=0;" edge="1" parent="hf4iLy-SJ0E2gR6EHuz_-3" source="hf4iLy-SJ0E2gR6EHuz_-19" target="hf4iLy-SJ0E2gR6EHuz_-14">
          <mxGeometry relative="1" as="geometry">
            <Array as="points">
              <mxPoint x="60" y="84" />
            </Array>
          </mxGeometry>
        </mxCell>
        <mxCell id="hf4iLy-SJ0E2gR6EHuz_-19" value="HTTPS://Post/parquet" style="text;html=1;align=center;verticalAlign=middle;resizable=0;points=[];autosize=1;strokeColor=none;fillColor=none;" vertex="1" parent="hf4iLy-SJ0E2gR6EHuz_-3">
          <mxGeometry x="5" y="110" width="140" height="30" as="geometry" />
        </mxCell>
        <mxCell id="hf4iLy-SJ0E2gR6EHuz_-25" value="" style="sketch=0;outlineConnect=0;fontColor=#232F3E;gradientColor=none;fillColor=#C925D1;strokeColor=none;dashed=0;verticalLabelPosition=bottom;verticalAlign=top;align=center;html=1;fontSize=12;fontStyle=0;aspect=fixed;pointerEvents=1;shape=mxgraph.aws4.rds_postgresql_instance;" vertex="1" parent="hf4iLy-SJ0E2gR6EHuz_-3">
          <mxGeometry x="405" y="166" width="78" height="78" as="geometry" />
        </mxCell>
        <mxCell id="hf4iLy-SJ0E2gR6EHuz_-33" value="" style="edgeStyle=orthogonalEdgeStyle;rounded=0;orthogonalLoop=1;jettySize=auto;html=1;" edge="1" parent="hf4iLy-SJ0E2gR6EHuz_-3" source="hf4iLy-SJ0E2gR6EHuz_-27" target="hf4iLy-SJ0E2gR6EHuz_-25">
          <mxGeometry relative="1" as="geometry" />
        </mxCell>
        <mxCell id="hf4iLy-SJ0E2gR6EHuz_-34" value="Cargar datos a la BD" style="edgeLabel;html=1;align=center;verticalAlign=middle;resizable=0;points=[];" vertex="1" connectable="0" parent="hf4iLy-SJ0E2gR6EHuz_-33">
          <mxGeometry x="-0.1552" y="1" relative="1" as="geometry">
            <mxPoint x="3" as="offset" />
          </mxGeometry>
        </mxCell>
        <mxCell id="hf4iLy-SJ0E2gR6EHuz_-27" value="" style="sketch=0;aspect=fixed;pointerEvents=1;shadow=0;dashed=0;html=1;strokeColor=none;labelPosition=center;verticalLabelPosition=bottom;verticalAlign=top;align=center;fillColor=#00188D;shape=mxgraph.mscae.enterprise.code_file" vertex="1" parent="hf4iLy-SJ0E2gR6EHuz_-3">
          <mxGeometry x="220" y="181" width="49" height="50" as="geometry" />
        </mxCell>
        <mxCell id="hf4iLy-SJ0E2gR6EHuz_-28" style="edgeStyle=orthogonalEdgeStyle;rounded=0;orthogonalLoop=1;jettySize=auto;html=1;entryX=0;entryY=0.5;entryDx=0;entryDy=0;entryPerimeter=0;" edge="1" parent="hf4iLy-SJ0E2gR6EHuz_-3" target="hf4iLy-SJ0E2gR6EHuz_-27">
          <mxGeometry relative="1" as="geometry">
            <mxPoint x="80" y="205" as="sourcePoint" />
          </mxGeometry>
        </mxCell>
        <mxCell id="hf4iLy-SJ0E2gR6EHuz_-29" value="HTTPS://Post/Data" style="edgeLabel;html=1;align=center;verticalAlign=middle;resizable=0;points=[];" vertex="1" connectable="0" parent="hf4iLy-SJ0E2gR6EHuz_-28">
          <mxGeometry x="-0.1369" y="-1" relative="1" as="geometry">
            <mxPoint as="offset" />
          </mxGeometry>
        </mxCell>
        <mxCell id="hf4iLy-SJ0E2gR6EHuz_-43" value="" style="edgeStyle=orthogonalEdgeStyle;rounded=0;orthogonalLoop=1;jettySize=auto;html=1;" edge="1" parent="hf4iLy-SJ0E2gR6EHuz_-3" source="hf4iLy-SJ0E2gR6EHuz_-32" target="hf4iLy-SJ0E2gR6EHuz_-42">
          <mxGeometry relative="1" as="geometry" />
        </mxCell>
        <mxCell id="hf4iLy-SJ0E2gR6EHuz_-32" value="Formateo de datos" style="text;html=1;align=center;verticalAlign=middle;resizable=0;points=[];autosize=1;strokeColor=none;fillColor=none;" vertex="1" parent="hf4iLy-SJ0E2gR6EHuz_-3">
          <mxGeometry x="184.5" y="230" width="120" height="30" as="geometry" />
        </mxCell>
        <mxCell id="hf4iLy-SJ0E2gR6EHuz_-35" value="" style="aspect=fixed;sketch=0;html=1;dashed=0;whitespace=wrap;verticalLabelPosition=bottom;verticalAlign=top;fillColor=#2875E2;strokeColor=#ffffff;points=[[0.005,0.63,0],[0.1,0.2,0],[0.9,0.2,0],[0.5,0,0],[0.995,0.63,0],[0.72,0.99,0],[0.5,1,0],[0.28,0.99,0]];shape=mxgraph.kubernetes.icon2;kubernetesLabel=1;prIcon=api" vertex="1" parent="hf4iLy-SJ0E2gR6EHuz_-3">
          <mxGeometry x="35" y="181" width="50" height="48" as="geometry" />
        </mxCell>
        <mxCell id="hf4iLy-SJ0E2gR6EHuz_-37" value="" style="edgeStyle=orthogonalEdgeStyle;rounded=0;orthogonalLoop=1;jettySize=auto;html=1;" edge="1" parent="hf4iLy-SJ0E2gR6EHuz_-3" source="hf4iLy-SJ0E2gR6EHuz_-36" target="hf4iLy-SJ0E2gR6EHuz_-35">
          <mxGeometry relative="1" as="geometry" />
        </mxCell>
        <mxCell id="hf4iLy-SJ0E2gR6EHuz_-36" value="" style="sketch=0;aspect=fixed;pointerEvents=1;shadow=0;dashed=0;html=1;strokeColor=none;labelPosition=center;verticalLabelPosition=bottom;verticalAlign=top;align=center;fillColor=#00188D;shape=mxgraph.mscae.enterprise.import_generic" vertex="1" parent="hf4iLy-SJ0E2gR6EHuz_-3">
          <mxGeometry x="40" y="300" width="40" height="50" as="geometry" />
        </mxCell>
        <mxCell id="hf4iLy-SJ0E2gR6EHuz_-42" value="" style="sketch=0;aspect=fixed;pointerEvents=1;shadow=0;dashed=0;html=1;strokeColor=none;labelPosition=center;verticalLabelPosition=bottom;verticalAlign=top;align=center;fillColor=#00188D;shape=mxgraph.mscae.enterprise.code_file" vertex="1" parent="hf4iLy-SJ0E2gR6EHuz_-3">
          <mxGeometry x="220" y="310" width="49" height="50" as="geometry" />
        </mxCell>
        <mxCell id="hf4iLy-SJ0E2gR6EHuz_-44" value="Progreso de carga" style="text;html=1;align=center;verticalAlign=middle;resizable=0;points=[];autosize=1;strokeColor=none;fillColor=none;" vertex="1" parent="hf4iLy-SJ0E2gR6EHuz_-3">
          <mxGeometry x="184.5" y="360" width="120" height="30" as="geometry" />
        </mxCell>
        <mxCell id="hf4iLy-SJ0E2gR6EHuz_-45" value="Notas" style="swimlane;whiteSpace=wrap;html=1;" vertex="1" parent="hf4iLy-SJ0E2gR6EHuz_-3">
          <mxGeometry x="370" y="280" width="130" height="110" as="geometry">
            <mxRectangle x="400" y="280" width="70" height="30" as="alternateBounds" />
          </mxGeometry>
        </mxCell>
        <mxCell id="hf4iLy-SJ0E2gR6EHuz_-46" value="&lt;span style=&quot;white-space: pre;&quot;&gt;La carga de datos&lt;/span&gt;&lt;div style=&quot;white-space: normal;&quot;&gt;&lt;span style=&quot;white-space: pre;&quot;&gt; puede incluir 1 o&amp;nbsp;&lt;/span&gt;&lt;/div&gt;&lt;div style=&quot;white-space: normal;&quot;&gt;&lt;span style=&quot;white-space: pre;&quot;&gt;mas carreras&lt;/span&gt;&lt;/div&gt;" style="text;html=1;align=center;verticalAlign=middle;resizable=0;points=[];autosize=1;strokeColor=none;fillColor=none;" vertex="1" parent="hf4iLy-SJ0E2gR6EHuz_-45">
          <mxGeometry x="5" y="30" width="120" height="60" as="geometry" />
        </mxCell>
      </root>
    </mxGraphModel>
  </diagram>
</mxfile>
